<?xml version="1.0" encoding="UTF-8"?>
<svg id="OBJECTS" xmlns="http://www.w3.org/2000/svg" viewBox="0 0 500 500">
  <defs>
    <style>
      .cls-1 {
        fill: #fff;
        fill-rule: evenodd;
      }
    </style>
  </defs>
  <path class="cls-1" d="M500,243.57c0,134.49-109.89,243.55-245.44,243.55-43.05,0-83.49-10.99-118.65-30.31L0,500l44.3-130.67c-22.35-36.71-35.21-79.76-35.21-125.76C9.09,109.05,118.98,0,254.55,0s245.44,109.05,245.44,243.57h0ZM254.55,38.79c-113.82,0-206.37,91.85-206.37,204.78,0,44.78,14.59,86.29,39.31,120.06l-25.77,76.03,79.29-25.19c32.58,21.37,71.61,33.85,113.55,33.85,113.77,0,206.35-91.85,206.35-204.76S368.33,38.79,254.55,38.79h0ZM378.5,299.67c-1.52-2.49-5.53-3.99-11.53-6.97-6.02-2.98-35.62-17.44-41.12-19.42-5.51-1.99-9.55-2.99-13.54,2.98-4.01,5.97-15.55,19.42-19.07,23.41-3.5,3.99-7,4.48-13.02,1.49-6.03-2.98-25.42-9.31-48.4-29.62-17.87-15.85-29.95-35.38-33.48-41.35-3.49-5.97-.35-9.19,2.63-12.17,2.72-2.69,6.03-6.97,9.03-10.44,3.01-3.5,4.01-6,6.02-9.99,2.01-3.99,1.01-7.46-.51-10.44-1.49-2.98-13.53-32.36-18.56-44.33-4.99-11.93-10.01-11.49-13.53-11.49s-9.99,1.04-9.99,1.04c0,0-12.06,1.49-17.57,7.47-5.51,5.97-21.05,20.42-21.05,49.78s21.54,57.78,24.55,61.74c3.01,3.99,41.61,66.24,102.78,90.15,61.17,23.9,61.17,15.92,72.21,14.92,11.01-.97,35.59-14.43,40.61-28.37,5.02-13.94,5.02-25.9,3.53-28.38h0ZM378.5,299.67"/>
</svg>